<svg xmlns="http://www.w3.org/2000/svg" viewBox="0 0 610.87 171.82"><defs><style>.cls-1{fill:#f2f0e9;}.cls-2{fill:none;stroke:#f2f0e9;stroke-miterlimit:10;}</style></defs><title>Asset 13</title><g id="Layer_2" data-name="Layer 2"><g id="Layer_1-2" data-name="Layer 1"><path class="cls-1" d="M87.29,62.86C98.76,25.94,121,10.16,138.79,10.2V9.09l-88.33-.2V10c10,0,24.16-.78,28.84,19.23,5,21.4-28.56,99.65-78.92,138.7V169l87.21.2v-1.11c-20.26-2.83-13.46-62.53-.31-105.27M610,84.82h-1.66c-5.59,12.21-23.66,21.89-38.1,21.85-9.45,0-15.28-2.81-18.88-5.87,36.12-6.31,56.23-52.37,20.12-52.45-17.5,0-32.26,16-41.19,35.46-6.42,13.59-13.66,20.52-24.21,20.5-9.44,0-16.66-3.93-16.63-15,0-8.61,3.09-18,8.12-28.31l21.66,0,5-10.27-21.66-.05,9.49-18.59h-1.67C497.3,44,485.89,50.93,468.65,59.78v1.11l17.5,0c-2.51,6.38-6.14,14.15-10,22.75-5.3,11.1-18.1,21.07-30.05,21-9.16,0-15-3.92-15-13.36,0-13.61,11.18-32.2,20.92-40.78l-35.83-.09v1.12c14.16,0,14.14,8.92,3.81,31.39-5,11.38-14.21,20.8-24.21,20.78-8,0-10.82-4.75-10.81-9.75,0-10,8.38-22.48,8.41-33,0-8.06-6.08-13.35-17.19-13.37-15.55,0-25.58,9.66-33.37,16.86H342l7.25-14.15L317,50.27v1.11c20.55,0,5.76,31.95,5.76,31.95-5.3,11.1-18.38,20.52-30.32,20.49-8.89,0-15-3.92-15-13.37,0-13.61,11.18-31.64,20.92-40.22l-35.55-.08v1.11c13.88,0,13.59,9.47,3.54,31.67-5.31,11.1-15.88,20.52-27,20.49-13.89,0-16.64-10.59-15.23-22.25a95.46,95.46,0,0,1,6.16-20.82l18.61,0,4.74-10.54-18.61-.05c13.4-27.18,47.86-35.72,47.8-9.61h1.67L299.08.51c1.39,0-40-1.48-62.56,30.13a134.93,134.93,0,0,0-11.71,19.14l-14.17,0L205.9,60v.27l14.16,0c-3.35,7.21-6.42,14.7-10.33,22.47-5,10.82-13.93,20.52-23.93,20.5-8.89,0-10.82-4.47-10.81-9.19,0-11.67,8.11-23.59,8.13-33.59,0-8.06-6.08-13.35-17.19-13.37-15.55,0-25.58,9.66-33.37,16.86H132l7-14.15-32.22-.07V50.9c18.61,0,16.37,9.76,6,32-20.66,44.67-33.53,87.41-11.31,87.46,21.11.05,36.24-59.35,38.48-68.51h-1.38c-6.41,5.82-15.85,5-15.82-5.87,0-12.22,16.75-37.45,35.63-37.41,6.67,0,10,3.08,10,8.63,0,16.67-28.74,57.71-28.8,85.76,0,10.56,4.13,17.51,15.24,17.54,8.61,0,18.91-9.68,28.66-23.55,2.51-3.6,6.41-9.43,8.08-12.48-1.13,7.22-1.69,13.61-1.15,19.16,1.36,10.56,6.63,17,18.29,17C221.48,170.6,236,154,248.78,134c-4.49,21.93-1.19,36.66,13.53,36.69,13.61,0,27.81-14.66,40.35-33.24-4.77,19.71-3.41,33.32,9.09,33.35,21.11,0,36-59.08,38.48-68.52h-1.38c-6.69,6.65-15.85,5.8-15.82-5.87,0-13.33,16.75-37.46,35.36-37.41,6.94,0,10.27,3.07,10.25,8.63,0,16.66-28.74,57.71-28.8,85.76,0,10.56,4.13,17.51,15,17.53,10.55,0,24.19-13.55,37.3-36.3-4.22,21.66-.92,36.39,13.53,36.42,15,0,30.31-17.15,44-38.51-4.49,21.93-1.75,38.6,15.47,38.64,12.22,0,27-18.54,39.81-39.9-3.39,24.43,4.07,40,25.18,40,30.28.07,52.05-47.93,69.91-86.5m-65,2.63c0-13.33,14.23-27.19,25.9-27.16,15.83,0-5.36,34.15-24.52,34.11a15.32,15.32,0,0,1-1.38-7M436.2,40.26h1.67C442.61,30,457.35,22,468.46,20.89V19.78C457.64,19.2,448.21,10,449.62.85H448c-4.47,9.43-17.54,17.74-30.6,18v1.39c12.22.59,20,10.6,18.84,20"/><path class="cls-2" d="M87.4,62.86c11.47-36.92,33.73-52.7,51.51-52.66V9.09l-88.33-.2V10c10,0,24.17-.78,28.84,19.23,5,21.4-28.55,99.65-78.92,138.7V169l87.22.2v-1.11C67.45,165.3,74.25,105.6,87.4,62.86Zm522.69,22h-1.67c-5.58,12.21-23.66,21.89-38.1,21.85-9.44,0-15.27-2.81-18.87-5.87,36.12-6.31,56.22-52.37,20.11-52.45-17.5,0-32.25,16-41.19,35.46-6.41,13.59-13.65,20.52-24.21,20.5-9.44,0-16.65-3.93-16.63-15,0-8.61,3.1-18,8.12-28.31l21.67,0,5-10.27-21.67-.05,9.49-18.59h-1.67C497.41,44,486,50.93,468.77,59.78v1.11l17.5,0c-2.51,6.38-6.14,14.15-10.05,22.75-5.3,11.1-18.1,21.07-30,21-9.17,0-15-3.92-15-13.36,0-13.61,11.18-32.2,20.92-40.78l-35.83-.09v1.12c14.17,0,14.15,8.92,3.82,31.39-5,11.38-14.22,20.8-24.21,20.78-8.06,0-10.83-4.75-10.81-9.75,0-10,8.38-22.48,8.4-33,0-8.06-6.08-13.35-17.19-13.37-15.55,0-25.57,9.66-33.37,16.86h-.83l7.25-14.15-32.22-.07v1.11c20.56,0,5.76,31.95,5.76,31.95-5.3,11.1-18.38,20.52-30.32,20.49-8.89,0-15-3.92-15-13.37,0-13.61,11.18-31.64,20.93-40.22L263,50.15v1.11c13.89,0,13.59,9.47,3.54,31.67-5.3,11.1-15.88,20.52-27,20.49-13.89,0-16.64-10.59-15.23-22.25a96,96,0,0,1,6.16-20.82l18.61,0,4.75-10.54L235.2,49.8c13.39-27.18,47.85-35.72,47.79-9.61h1.67L299.19.51c1.39,0-40-1.48-62.56,30.13a134.93,134.93,0,0,0-11.71,19.14l-14.16,0L206,60v.27l14.17,0c-3.35,7.21-6.43,14.7-10.33,22.47-5,10.82-13.94,20.52-23.94,20.5-8.88,0-10.82-4.47-10.81-9.19,0-11.67,8.11-23.59,8.13-33.59,0-8.06-6.08-13.35-17.19-13.37-15.55,0-25.57,9.66-33.37,16.86h-.55l7-14.15-32.21-.07V50.9c18.61,0,16.37,9.76,6,32-20.65,44.67-33.53,87.41-11.31,87.46,21.11.05,36.24-59.35,38.49-68.51H138.7c-6.4,5.82-15.84,5-15.82-5.87,0-12.22,16.75-37.45,35.64-37.41,6.66,0,10,3.08,10,8.63,0,16.67-28.74,57.71-28.81,85.76,0,10.56,4.13,17.51,15.24,17.54,8.61,0,18.91-9.68,28.66-23.55,2.51-3.6,6.41-9.43,8.09-12.48-1.13,7.22-1.7,13.61-1.16,19.16,1.37,10.56,6.63,17,18.29,17,12.78,0,27.26-16.61,40.08-36.57-4.49,21.93-1.19,36.66,13.53,36.69,13.61,0,27.81-14.66,40.35-33.24-4.77,19.71-3.41,33.32,9.09,33.35,21.11,0,36-59.08,38.49-68.52H349c-6.68,6.65-15.85,5.8-15.82-5.87C333.17,83.08,349.89,59,368.5,59c6.94,0,10.27,3.07,10.26,8.63,0,16.66-28.74,57.71-28.81,85.76,0,10.56,4.13,17.51,15,17.53,10.56,0,24.2-13.55,37.3-36.3C398,156.28,401.3,171,415.74,171c15,0,30.32-17.15,44-38.51-4.49,21.93-1.75,38.6,15.47,38.64,12.22,0,27-18.54,39.81-39.9-3.39,24.43,4.07,40,25.18,40C570.45,171.39,592.22,123.39,610.09,84.82Zm-65,2.63c0-13.33,14.22-27.19,25.89-27.16,15.83,0-5.35,34.15-24.52,34.11A15.23,15.23,0,0,1,545.09,87.45ZM436.31,40.26H438C442.73,30,457.46,22,468.58,20.89V19.78C457.75,19.2,448.33,10,449.74.85h-1.67c-4.47,9.43-17.54,17.74-30.59,18v1.39C429.69,20.81,437.45,30.82,436.31,40.26Z"/></g></g></svg>